<svg xmlns="http://www.w3.org/2000/svg" viewBox="0 0 1000 1000"><defs><style>.cls-1{fill:#fff;}</style></defs><title>Wissen Vertical blanco</title><g id="Capa_4" data-name="Capa 4"><path class="cls-1" d="M499.5,431a22,22,0,0,0-3.76.23q-8.49,1.32-14.27,9.82-7,10.32-8.44,30.85l53.43,1.35q-1.17-20.9-8.29-31.42T499.5,431Zm-14.31,30.42c1.42-7.4,3.48-11.77,5.2-14.3,2.82-4.15,5.34-5,7-5.22a9.84,9.84,0,0,1,1.83-.11c3,.07,6.47.85,10,6.08,1.72,2.55,3.75,6.92,5.12,14.28Z"/><path class="cls-1" d="M688.83,350.56l-38.22-8.06c-1-71.94-19.72-127.76-54.3-161.63a124.36,124.36,0,0,0-42.94-27.55c-16.65-6.35-35.23-9.39-55.23-9a120.11,120.11,0,0,0-61.64,18.07c-17.6,10.84-33,26.18-45.82,45.6-15.29,23.21-26.24,51.53-32.24,82.7l-6.92-1.61a36.86,36.86,0,0,0-5.7-1.33c-35.66-5.29-72.31,42.72-81.88,107.24-7.32,49.31,3.32,94,24.65,114.66l.13,26.11c0,11.11,2,19.62,6.08,26a26.67,26.67,0,0,0,8.57,8.66,23.65,23.65,0,0,0,11.86,3.44,25.33,25.33,0,0,0,4.38-.28c4.61-.71,11.19-3.17,16.43-10.84,4.31-6.3,6.37-14.9,6.32-26.28l0-7.76L369.49,535l.12,0,.47.11c.9.2,5.85.75,6.77.89a36.29,36.29,0,0,0,13.11-.44l-.29-60.32.3,63c.06,11.11,2,19.62,6.09,26a26.38,26.38,0,0,0,8.57,8.66,23.59,23.59,0,0,0,11.86,3.44,25.46,25.46,0,0,0,4.38-.27c4.6-.72,11.19-3.17,16.43-10.84,4.19-6.15,6.25-14.49,6.3-25.45a86.23,86.23,0,0,0,6.57,11.39,65.08,65.08,0,0,0,22.8,20.6,67.15,67.15,0,0,0,30,7.47,70,70,0,0,0,12.45-.75,55.48,55.48,0,0,0,14.14-4.09,59.41,59.41,0,0,0,19.27-13.28c1.23-1.29,2.37-2.61,3.46-3.95l-.09.11a40.05,40.05,0,0,0,17.6,9.15l1.19.3.88.18.12,0,19.28,4.15v2a119,119,0,0,1-4.77,13.63,13.37,13.37,0,0,1-1.31,2.36c-1,.31-2.68.7-4.21,1l-243.53,2.8a25.11,25.11,0,0,0-3.12.28,24.79,24.79,0,0,0,4.14,49.28l250.76,0a61.07,61.07,0,0,0,10.61-.64,39.67,39.67,0,0,0,16.65-6.33c6.8-4.7,12.24-11.46,16.18-20.1,3.42-7.49,6.74-17.35,10.18-30.17l.78-3.19,6.43,1.35a35.16,35.16,0,0,0,4.08.85c35.65,5.29,72.31-42.72,81.88-107.23S724.49,355.85,688.83,350.56ZM631.33,426q-.51,2-1.05,4.17Q630.82,428,631.33,426ZM341.42,360.22c-.49-9.31-2.56-16.58-6.28-22.14C338.86,343.64,340.93,350.91,341.42,360.22Zm87,199q-3.7,5.41-9.17,6.26a14.14,14.14,0,0,1-2.46.15q-7.23-.18-11.58-7.07t-4.42-20.3l-.35-73.46L331.22,463l.35,73.46q.06,13.56-4.44,20.15-3.69,5.42-9.17,6.26a14.09,14.09,0,0,1-2.45.15q-7.25-.18-11.59-7.07t-4.41-20.3l-.82-172.11q-.06-13.41,4.17-20a12.79,12.79,0,0,1,9-6.25,14.43,14.43,0,0,1,2.57-.16q7.23.18,11.74,6.93t4.58,20.3l.3,62.58,69.19,1.75-.3-62.58q-.06-13.42,4.28-20c2.38-3.62,5.38-5.7,9-6.27a14,14,0,0,1,2.44-.15q7.23.19,11.75,6.93t4.57,20.3l.51,106.33c-.21,3.53-.34,7.12-.33,10.79,0,3.86.19,7.6.44,11.27l.21,43.72Q432.89,552.6,428.39,559.19Zm8-218.56a31,31,0,0,1,2.78,5.2A31,31,0,0,0,436.4,340.63Zm6.69,88.08-.3-61.83.3,61.82,0-.06ZM473.14,495a72.59,72.59,0,0,0,4.17,24.54q4,10.68,10.54,16.21a22.83,22.83,0,0,0,14.44,5.72,28.32,28.32,0,0,0,5.11-.3,23.8,23.8,0,0,0,4.54-1.17,27,27,0,0,0,8.45-5.15,67.7,67.7,0,0,0,7.52-7.63q3.44-4.08,8.91-11.1a7.13,7.13,0,0,1,4.48-2.4,11.45,11.45,0,0,1,2-.12,9.35,9.35,0,0,1,7.36,3.62q2.82,3.5,2.85,9.75,0,5.52-3.07,12.81A46.73,46.73,0,0,1,541,553.74a48.65,48.65,0,0,1-15.81,10.85,44.72,44.72,0,0,1-11.42,3.29,59.75,59.75,0,0,1-10.53.63Q474.89,567.79,459,545q-13.53-19.39-15.62-50.14l-.1-21.32a127.65,127.65,0,0,1,3.4-22.94,80.56,80.56,0,0,1,11.21-26.16A49.35,49.35,0,0,1,476.18,408a46.86,46.86,0,0,1,14.47-4.68L489,392.68a57.76,57.76,0,0,0-32.4,16.51l.08-.09c3.15-56.12-17.17-102.29-49.2-107l-14-3.26c5-27,14.28-51.39,27.24-71.05,14-21.29,39-46.81,78-47.5,29.65-.52,54,8.33,72.37,26.32,26,25.5,41.25,70.77,43.3,128.3l-3.75-.79h0c-.79-.17-1.57-.32-2.37-.44-28.43-4.22-57.5,25.46-73,70.36.54.41,1.06.84,1.58,1.27-10.15-8.48-22.37-13-36.33-13.31a66.05,66.05,0,0,0-11.6.71l1.65,10.67a54.8,54.8,0,0,1,9.68-.6q17.28.44,29.68,10.81A63.77,63.77,0,0,1,548.65,440,91.21,91.21,0,0,1,555,472.67Q555,488,548.68,492.4a23.38,23.38,0,0,1-9.89,3.64,44,44,0,0,1-8,.45Zm57.33,12.24a17.86,17.86,0,0,0-1.84,1.85l-.17.2-.15.2c-3.56,4.55-6.47,8.18-8.66,10.79a59.08,59.08,0,0,1-6.33,6.43,16.94,16.94,0,0,1-5.09,3.17,12.76,12.76,0,0,1-2.47.62,18.18,18.18,0,0,1-3.2.19,12.13,12.13,0,0,1-7.75-3.19c-2.92-2.46-5.41-6.41-7.4-11.74a52.13,52.13,0,0,1-2.53-9.67Zm21.12-87c0,.55-.07,1.09-.08,1.65l-.54-.83c.17.26.36.5.52.76C551.5,421.32,551.56,420.8,551.59,420.27Zm10.65,118.6a38.36,38.36,0,0,0,2-11.91A38.36,38.36,0,0,1,562.24,538.87Zm3.4-61.93c0-.06,0-.13,0-.19v0C565.65,476.83,565.65,476.89,565.64,476.94Zm103.43-45.48q-.95,5.21-2.32,10.52L632.47,582.35q-4.87,18.2-9.57,28.51t-12.5,15.7a28.87,28.87,0,0,1-12.16,4.55,50.62,50.62,0,0,1-8.92.51l-251,0A14,14,0,0,1,336,603.82a14.73,14.73,0,0,1,1.77-.17l244.36-2.82s7.09-1.23,9-2.58,3.67-3.7,5.2-7.09a130.55,130.55,0,0,0,5.27-15l.92-10.95-36.87-127q-3.39-11-3.42-15.88a23.59,23.59,0,0,1,1.9-9.63,17.28,17.28,0,0,1,5.31-7,11.61,11.61,0,0,1,5.3-2.39,9.36,9.36,0,0,1,1.76-.11,10.81,10.81,0,0,1,9.63,5.83q3.27,5.67,5.8,16.16L617.39,526l23.2-92.53q2.74-11.25,5-17.61t4.76-8.52a8.59,8.59,0,0,1,4.42-1.89,15,15,0,0,1,2.74-.16,10.45,10.45,0,0,1,6.44,2.62,16.46,16.46,0,0,1,4.78,6.75,23.89,23.89,0,0,1,1.72,8.83Q670,426.27,669.07,431.46Z"/><path class="cls-1" d="M272.27,592a24.87,24.87,0,1,0,28.37,20.78A24.88,24.88,0,0,0,272.27,592Z"/><path class="cls-1" d="M227.74,679.28a14.56,14.56,0,0,1,1,11.8L179.08,845.25q-3.44,10.49-14.58,10.49t-14.58-10.49l-35.23-109-35.06,109q-3.45,10.49-14.58,10.49T50.46,845.25L.82,691.08a14.49,14.49,0,0,1,1-11.8,14.51,14.51,0,0,1,8.85-7.54,15.17,15.17,0,0,1,4.75-.82,15.09,15.09,0,0,1,7,1.81A14.45,14.45,0,0,1,30,681.57l35.07,109,35.06-109q3.44-10.65,14.58-10.65,11.31,0,14.58,10.65l35.23,109,35.06-109a14.44,14.44,0,0,1,7.54-8.84,14.42,14.42,0,0,1,11.79-1A14.48,14.48,0,0,1,227.74,679.28Z"/><path class="cls-1" d="M276.06,670.92a15.66,15.66,0,0,1,15.4,15.4V840.5a14.49,14.49,0,0,1-4.58,10.82,15.44,15.44,0,0,1-21.63,0,14.46,14.46,0,0,1-4.59-10.82V686.32a15.68,15.68,0,0,1,15.4-15.4Z"/><path class="cls-1" d="M347.28,844.6a75.52,75.52,0,0,1-22.44-23.1A14.61,14.61,0,0,1,323,810a15.37,15.37,0,0,1,6.71-9.67,15,15,0,0,1,11.64-1.8,14.6,14.6,0,0,1,9.5,6.88A43.29,43.29,0,0,0,364,818.71q9.17,6.39,18.51,6.39a27,27,0,0,0,18.68-6.88q7.86-6.72,7.86-16.39,0-9.83-6.39-14.58-5.57-4.26-24.41-9.34-23.76-6.54-34.41-14.42-18.68-13.43-18.68-38.66,0-22.27,16.88-38.18,16.71-15.72,40.47-15.73A59,59,0,0,1,414,679.77a53.38,53.38,0,0,1,21,23.59,15.15,15.15,0,0,1-7.54,20.32,15.27,15.27,0,0,1-20.31-7.54,23.94,23.94,0,0,0-9.67-10.65,29,29,0,0,0-14.91-3.93,27.67,27.67,0,0,0-18.84,6.88,21,21,0,0,0-7.7,16.39q0,9.66,6.06,14.25,5.57,3.93,24.41,9.18Q410.37,755,421,762.68q18.67,13.76,18.68,39.15,0,22.29-16.71,38.18-16.87,15.72-40.47,15.73Q364,855.74,347.28,844.6Z"/><path class="cls-1" d="M492.8,844.6a75.41,75.41,0,0,1-22.44-23.1A14.65,14.65,0,0,1,468.55,810a15.39,15.39,0,0,1,6.72-9.67,15,15,0,0,1,11.63-1.8,14.59,14.59,0,0,1,9.51,6.88,43.37,43.37,0,0,0,13.1,13.27q9.18,6.39,18.52,6.39a27,27,0,0,0,18.68-6.88q7.86-6.72,7.86-16.39,0-9.83-6.39-14.58-5.56-4.26-24.41-9.34-23.76-6.54-34.41-14.42-18.67-13.43-18.68-38.66,0-22.27,16.88-38.18,16.71-15.72,40.47-15.73a59,59,0,0,1,31.46,8.85,53.38,53.38,0,0,1,21,23.59,15.15,15.15,0,0,1-7.54,20.32,15.27,15.27,0,0,1-20.31-7.54,23.94,23.94,0,0,0-9.67-10.65A29,29,0,0,0,528,701.56a27.67,27.67,0,0,0-18.84,6.88,21,21,0,0,0-7.7,16.39q0,9.66,6.06,14.25,5.56,3.93,24.41,9.18,23.92,6.72,34.57,14.42,18.68,13.76,18.68,39.15,0,22.29-16.71,38.18Q551.63,855.73,528,855.74,509.5,855.74,492.8,844.6Z"/><path class="cls-1" d="M640.21,828.7a92.76,92.76,0,0,1-19.82-29.16A90.09,90.09,0,0,1,613,763.66q0-38.34,27.19-65.54a93.49,93.49,0,0,1,29.66-19.82,90.9,90.9,0,0,1,36.21-7.38q38.34,0,65.7,27.2a91.75,91.75,0,0,1,19.83,29.49,90.69,90.69,0,0,1,7.37,36,14.73,14.73,0,0,1-4.42,10.81,15,15,0,0,1-11,4.59h-138a59.94,59.94,0,0,0,22,32.93,61.06,61.06,0,0,0,38.5,13.11q34.08,0,52.6-20.81a14.25,14.25,0,0,1,10.48-5.08A15.25,15.25,0,0,1,780.3,803a15.26,15.26,0,0,1,1.15,21.63q-27.53,31.13-75.37,31.13Q667.58,855.74,640.21,828.7Zm126.17-80.44a62.35,62.35,0,0,0-120.76,0Z"/><path class="cls-1" d="M915.13,670.43q35.05,0,60,27.2Q1000,724.66,1000,763v77.5a15.42,15.42,0,0,1-26.22,10.82,15.12,15.12,0,0,1-4.42-10.82V763q0-25.56-15.89-43.74-16.07-18-38.34-18-22.61,0-38.51,18Q860.73,737.44,860.73,763v77a14.68,14.68,0,0,1-4.42,10.81,15.06,15.06,0,0,1-10.81,4.43,15.27,15.27,0,0,1-11-4.43A14.69,14.69,0,0,1,830.09,840v-148a14.69,14.69,0,0,1,4.43-10.81,15,15,0,0,1,11-4.59,15.38,15.38,0,0,1,15.23,15.4v-.17Q884.33,670.44,915.13,670.43Z"/></g></svg>