<svg xmlns="http://www.w3.org/2000/svg" viewBox="0 0 1130.72 300"><defs><style>.cls-1{fill:#6000f7;}.cls-2{fill:#fff;}</style></defs><title>Wissen Horizontal</title><g id="Capa_5" data-name="Capa 5"><path class="cls-1" d="M500.37,120.07a11.82,11.82,0,0,1,.8,9.63L460.65,255.55q-2.81,8.55-11.9,8.55t-11.9-8.55l-28.76-88.94-28.62,88.94q-2.81,8.55-11.9,8.55t-11.9-8.55L315.15,129.7a11.82,11.82,0,0,1,.8-9.63,11.8,11.8,0,0,1,7.22-6.15,11.82,11.82,0,0,1,9.63.8,11.85,11.85,0,0,1,6.15,7.22l28.62,88.94,28.62-88.94q2.81-8.68,11.9-8.69t11.9,8.69l28.76,88.94,28.62-88.94a11.85,11.85,0,0,1,6.15-7.22,11.82,11.82,0,0,1,9.63-.8A11.83,11.83,0,0,1,500.37,120.07Z"/><path class="cls-1" d="M539.81,113.25a12.79,12.79,0,0,1,12.57,12.57V251.67a11.8,11.8,0,0,1-3.74,8.82,12.6,12.6,0,0,1-17.66,0,11.8,11.8,0,0,1-3.74-8.82V125.82a12.79,12.79,0,0,1,12.57-12.57Z"/><path class="cls-1" d="M597.94,255a61.65,61.65,0,0,1-18.32-18.86,12,12,0,0,1-1.47-9.36,12.54,12.54,0,0,1,5.48-7.89,12.26,12.26,0,0,1,9.5-1.47,11.92,11.92,0,0,1,7.76,5.62,35.29,35.29,0,0,0,10.7,10.83q7.49,5.22,15.11,5.22a22.09,22.09,0,0,0,15.24-5.62,17,17,0,0,0,6.42-13.38q0-8-5.21-11.9-4.54-3.47-19.93-7.62-19.4-5.34-28.09-11.77-15.24-11-15.24-31.56,0-18.18,13.77-31.16t33-12.84a48.18,48.18,0,0,1,25.67,7.22,43.56,43.56,0,0,1,17.12,19.26,12.36,12.36,0,0,1-6.15,16.58,12.47,12.47,0,0,1-16.58-6.15,19.54,19.54,0,0,0-7.89-8.69,23.65,23.65,0,0,0-12.17-3.21,22.53,22.53,0,0,0-15.38,5.62A17.09,17.09,0,0,0,605,157.25q0,7.89,5,11.63,4.54,3.21,19.93,7.49,19.51,5.49,28.21,11.77,15.25,11.24,15.25,32,0,18.19-13.64,31.17a46.77,46.77,0,0,1-33,12.83Q611.58,264.1,597.94,255Z"/><path class="cls-1" d="M716.72,255a61.54,61.54,0,0,1-18.32-18.86,12,12,0,0,1-1.47-9.36,12.54,12.54,0,0,1,5.48-7.89,12.26,12.26,0,0,1,9.5-1.47,11.92,11.92,0,0,1,7.76,5.62,35.25,35.25,0,0,0,10.69,10.83q7.5,5.22,15.12,5.22a22.09,22.09,0,0,0,15.24-5.62,17,17,0,0,0,6.42-13.38q0-8-5.22-11.9-4.54-3.47-19.92-7.62-19.39-5.34-28.09-11.77-15.24-11-15.24-31.56,0-18.18,13.77-31.16t33-12.84a48.18,48.18,0,0,1,25.67,7.22,43.62,43.62,0,0,1,17.12,19.26,12.36,12.36,0,0,1-6.15,16.58,12.47,12.47,0,0,1-16.58-6.15,19.54,19.54,0,0,0-7.89-8.69,23.68,23.68,0,0,0-12.17-3.21,22.53,22.53,0,0,0-15.38,5.62,17.06,17.06,0,0,0-6.29,13.37q0,7.89,5,11.63,4.54,3.21,19.93,7.49,19.51,5.49,28.21,11.77,15.26,11.24,15.25,32,0,18.19-13.64,31.17a46.8,46.8,0,0,1-33,12.83Q730.36,264.1,716.72,255Z"/><path class="cls-1" d="M837.05,242a75.54,75.54,0,0,1-16.18-23.81,73.45,73.45,0,0,1-6-29.29q0-31.29,22.2-53.49a76.37,76.37,0,0,1,24.2-16.18,74.31,74.31,0,0,1,29.56-6q31.29,0,53.63,22.2a75,75,0,0,1,16.18,24.07,74,74,0,0,1,6,29.42,12,12,0,0,1-3.61,8.83,12.23,12.23,0,0,1-9,3.75H841.46a49,49,0,0,0,17.92,26.88,49.87,49.87,0,0,0,31.43,10.7q27.81,0,42.93-17A11.66,11.66,0,0,1,942.3,218a12.48,12.48,0,0,1,9.09,3.08,12.45,12.45,0,0,1,.94,17.65q-22.47,25.41-61.52,25.41Q859.39,264.1,837.05,242Zm103-65.67a50.89,50.89,0,0,0-98.56,0Z"/><path class="cls-1" d="M1061.44,112.85q28.62,0,49,22.2t20.33,53.36v63.26a12.58,12.58,0,0,1-21.4,8.82,12.26,12.26,0,0,1-3.61-8.82V188.41q0-20.86-13-35.71T1061.44,138Q1043,138,1030,152.7t-13,35.71v62.86a12,12,0,0,1-3.61,8.82,12.27,12.27,0,0,1-8.82,3.61,12.43,12.43,0,0,1-9-3.61,12,12,0,0,1-3.62-8.82V130.5a12,12,0,0,1,3.62-8.82,12.2,12.2,0,0,1,9-3.75A12.56,12.56,0,0,1,1017,130.5v-.13Q1036.3,112.85,1061.44,112.85Z"/><path class="cls-2" d="M243.8,145.73l-20.26,20.39-9.48,27-16.81-49.57L182.59,155.9l3.64,19.58-19-16.81-19.86-6-14.53,7.2-11,7.25-6.9-6.29-2-37.28-16-10.14L70.94,120l-2.35,32.67L43.7,103.92,24.11,120V232.26l5.67,17.8,9.69,4.83,10.79-6.13v-16.5L54,226.35l16.48.86H82.15l5.6,9.92,3,16,9.49,4.67,8.49-4.67,3-13.86.83-3.88,11,8.19,9.29,11.3,14.53,2.92h12.83L171,253.14,186.23,244,202,247.47l3.88,10.34-3.88,11-74.15,2.84H50.26l-9.92,8.62,2.4,10.35,5.21,8,164.39-3.23,12.07-11.66,32.76-120.25ZM142.93,179l8.41-2.54,6.22,6.61,4.05,11.79-26.15-1.73Zm24.86,47.66-9.2,6.88-8.19,2.27-8.33-4.74-5.32-13.56,36.93-1.82Z"/><path class="cls-1" d="M148.67,172.57a12.71,12.71,0,0,0-2.25.14q-5.08.78-8.55,5.88-4.2,6.18-5.05,18.47l32,.8q-.7-12.5-5-18.81T148.67,172.57Zm-8.57,18.21a22.79,22.79,0,0,1,3.11-8.56c1.69-2.48,3.2-3,4.19-3.13a6.52,6.52,0,0,1,1.1-.06c1.78,0,3.88.51,6,3.64a22.55,22.55,0,0,1,3.07,8.55Z"/><path class="cls-1" d="M262,124.38l-22.89-4.82c-.59-43.07-11.81-76.49-32.51-96.77a74.4,74.4,0,0,0-25.71-16.5A87.91,87.91,0,0,0,147.85.89,71.92,71.92,0,0,0,111,11.7C100.41,18.19,91.18,27.38,83.52,39,74.36,52.9,67.81,69.86,64.22,88.52l-4.15-1a21.92,21.92,0,0,0-3.41-.79c-21.35-3.16-43.3,25.58-49,64.21-4.38,29.52,2,56.26,14.77,68.65l.07,15.63c0,6.65,1.22,11.74,3.64,15.57A16,16,0,0,0,31.24,256a14.08,14.08,0,0,0,7.11,2.05A14.25,14.25,0,0,0,41,257.9a14.43,14.43,0,0,0,9.83-6.49c2.58-3.77,3.82-8.92,3.79-15.74l0-4.64,16.27,3.8h.07l.28.06c.54.13,3.5.46,4.06.54a22,22,0,0,0,7.84-.26l-.17-36.12.18,37.72c0,6.65,1.23,11.74,3.64,15.57a15.9,15.9,0,0,0,5.14,5.18,14.06,14.06,0,0,0,7.1,2.06,15.12,15.12,0,0,0,2.62-.16,14.45,14.45,0,0,0,9.84-6.49c2.51-3.68,3.74-8.68,3.77-15.24a50.53,50.53,0,0,0,3.94,6.82,38.71,38.71,0,0,0,13.64,12.33,40.15,40.15,0,0,0,18,4.48,41.91,41.91,0,0,0,7.45-.45,33.21,33.21,0,0,0,8.47-2.45,35.81,35.81,0,0,0,11.54-8c.73-.78,1.42-1.56,2.07-2.37l-.05.07a24,24,0,0,0,10.53,5.48l.71.18.53.11h.07l11.55,2.49v1.17a69.66,69.66,0,0,1-2.85,8.15,7.84,7.84,0,0,1-.78,1.42c-.62.18-1.61.42-2.53.59l-145.8,1.68a14.84,14.84,0,0,0,.61,29.67H202.41a37,37,0,0,0,6.36-.38,23.79,23.79,0,0,0,10-3.79,28.87,28.87,0,0,0,9.69-12,119.51,119.51,0,0,0,6.09-18.06l.46-1.91,3.85.81c.81.21,1.62.38,2.45.51,21.34,3.16,43.29-25.58,49-64.21S283.37,127.55,262,124.38ZM227.6,169.54c-.21.8-.42,1.64-.63,2.5C227.18,171.18,227.39,170.34,227.6,169.54ZM54,130.16c-.3-5.57-1.54-9.92-3.77-13.25C52.49,120.24,53.73,124.59,54,130.16ZM106.09,249.3A8,8,0,0,1,100.6,253a7.09,7.09,0,0,1-1.47.09,8.13,8.13,0,0,1-6.93-4.23q-2.61-4.12-2.65-12.15l-.21-44-41.42-1,.21,44q0,8.12-2.66,12.07A8.05,8.05,0,0,1,40,251.51a7.09,7.09,0,0,1-1.47.09,8.16,8.16,0,0,1-6.94-4.23q-2.59-4.12-2.64-12.15l-.49-103q0-8,2.49-12a7.61,7.61,0,0,1,6.93-3.83,8.41,8.41,0,0,1,7,4.14q2.7,4,2.74,12.16l.18,37.47,41.43,1-.18-37.47q0-8,2.56-12A7.84,7.84,0,0,1,97,118a8.8,8.8,0,0,1,1.47-.09,8.46,8.46,0,0,1,7,4.15q2.7,4,2.74,12.16l.3,63.65c-.13,2.12-.2,4.27-.19,6.47s.1,4.55.25,6.74l.13,26.18Q108.78,245.34,106.09,249.3Zm4.8-130.86a18.76,18.76,0,0,1,1.66,3.11A18.76,18.76,0,0,0,110.89,118.44Zm4,52.73-.17-37,.17,37,0,0A.08.08,0,0,1,114.89,171.17Zm18,39.72a43.47,43.47,0,0,0,2.49,14.69,22.87,22.87,0,0,0,6.31,9.7,13.67,13.67,0,0,0,8.65,3.43,16.91,16.91,0,0,0,3.06-.18,14.09,14.09,0,0,0,2.72-.7,16.59,16.59,0,0,0,5.06-3.08,41.29,41.29,0,0,0,4.5-4.57q2.06-2.44,5.33-6.65a4.32,4.32,0,0,1,2.69-1.44,7.42,7.42,0,0,1,1.18-.07,5.58,5.58,0,0,1,4.4,2.17A9.09,9.09,0,0,1,181,230a19.78,19.78,0,0,1-1.84,7.67,27.92,27.92,0,0,1-5.61,8.33,29,29,0,0,1-9.47,6.5,27,27,0,0,1-6.84,2,35.59,35.59,0,0,1-6.3.37q-17-.42-26.5-14.05-8.1-11.61-9.35-30L115,198a76.49,76.49,0,0,1,2-13.73,48.24,48.24,0,0,1,6.71-15.67,29.54,29.54,0,0,1,10.94-9.85,28.1,28.1,0,0,1,8.66-2.8l-1-6.39a34.67,34.67,0,0,0-10.64,3.45,35.22,35.22,0,0,0-8.75,6.43l0,0c1.89-33.6-10.28-61.24-29.46-64.08L85.19,93.4c3-16.2,8.55-30.77,16.31-42.54,8.4-12.75,23.32-28,46.73-28.44,17.76-.32,32.33,5,43.33,15.76,15.59,15.27,24.7,42.37,25.93,76.81l-2.25-.47h0c-.47-.1-.94-.19-1.42-.26-17-2.53-34.43,15.24-43.69,42.13.32.24.64.5,1,.76a34.47,34.47,0,0,0-21.75-8,39.7,39.7,0,0,0-7,.43l1,6.39a32.34,32.34,0,0,1,5.8-.36,28,28,0,0,1,17.77,6.47A38.12,38.12,0,0,1,178.09,178a54.4,54.4,0,0,1,3.78,19.54q0,9.19-3.76,11.82a14.15,14.15,0,0,1-5.92,2.18,27.75,27.75,0,0,1-4.79.27Zm34.32,7.32a10.48,10.48,0,0,0-1.1,1.11l-.1.12-.09.12c-2.13,2.73-3.88,4.9-5.19,6.46a34.42,34.42,0,0,1-3.79,3.85,10.28,10.28,0,0,1-3.05,1.9,7.45,7.45,0,0,1-1.48.37,10.62,10.62,0,0,1-1.91.11,7.22,7.22,0,0,1-4.64-1.91,16.59,16.59,0,0,1-4.43-7,30.82,30.82,0,0,1-1.51-5.79Zm12.64-52.09c0,.33,0,.66,0,1l-.33-.5c.1.16.22.3.32.46C179.8,166.75,179.84,166.44,179.85,166.12Zm6.38,71a22.87,22.87,0,0,0,1.22-7.13A22.87,22.87,0,0,1,186.23,237.13Zm2-37.08v-.11h0A.38.38,0,0,0,188.27,200.05Zm61.92-27.23c-.37,2.08-.84,4.17-1.39,6.3l-20.52,84a115.39,115.39,0,0,1-5.73,17.07,22.28,22.28,0,0,1-7.49,9.4,17.2,17.2,0,0,1-7.28,2.72,30.11,30.11,0,0,1-5.34.31H52.19A8.38,8.38,0,0,1,50.79,276a9.09,9.09,0,0,1,1.06-.09l146.3-1.69s4.25-.74,5.41-1.55a10.08,10.08,0,0,0,3.11-4.25,76.29,76.29,0,0,0,3.16-9l.55-6.55-22.08-76q-2-6.56-2-9.51a14.12,14.12,0,0,1,1.13-5.77,10.47,10.47,0,0,1,3.18-4.2,7,7,0,0,1,3.17-1.43,7.45,7.45,0,0,1,1.06-.07,6.48,6.48,0,0,1,5.76,3.49,37.82,37.82,0,0,1,3.48,9.68l15.21,60.33L233.14,174q1.65-6.74,3-10.54t2.85-5.1a5.19,5.19,0,0,1,2.64-1.14,8.74,8.74,0,0,1,1.65-.09,6.2,6.2,0,0,1,3.85,1.57,9.82,9.82,0,0,1,2.86,4,14.16,14.16,0,0,1,1,5.29C250.84,169.15,250.57,170.75,250.19,172.82Z"/><path class="cls-1" d="M12.62,268.94a14.89,14.89,0,1,0,17,12.45A14.89,14.89,0,0,0,12.62,268.94Z"/></g></svg>